<svg xmlns="http://www.w3.org/2000/svg" style="display: none;">
  
    <symbol id="icon-phone" viewBox="0 0 512 512">
      <path d="m493 25l-104-24c-11-3-22 3-27 14l-48 112c-4 9-1 21 7 28l60 49c-36 77-98 141-177 177l-49-60c-7-9-19-11-28-7l-112 48c-11 5-17 16-9 27l24 104c-3 11 7 19 18 19 256 0 464-207 464-464 0-11-8-21-19-23z"/>
    </symbol>
  
    <symbol id="icon-houzz" viewBox="0 0 512 512">
      <path d="m308 331l-105 0 0 149-154 0 0-448 109 0 0 105 305 85 0 258-155 0z"/>
    </symbol>
  
    <symbol id="icon-facebook" viewBox="0 0 512 512">
      <path d="m480 57l0 398c0 14-11 25-25 25l-114 0 0-173 58 0 9-68-67 0 0-43c0-20 5-33 34-33l35 0 0-61c-6 0-27-2-52-2-51 0-87 31-87 89l0 50-58 0 0 68 58 0 0 173-214 0c-14 0-25-11-25-25l0-398c0-14 11-25 25-25l398 0c14 0 25 11 25 25z"/>
    </symbol>
  
    <symbol id="icon-google-plus" viewBox="0 0 512 512">
      <path d="m256 8c-137 0-248 111-248 248 0 137 111 248 248 248 137 0 248-111 248-248 0-137-111-248-248-248z m-71 372c-68 0-124-55-124-124 0-68 56-124 124-124 32 0 60 11 83 32l-33 33c-13-13-32-19-50-19-43 0-77 35-77 78 0 43 34 78 77 78 33 0 65-19 70-53l-70 0 0-43 117 0c2 7 2 14 2 21 0 71-47 121-119 121z m231-106l0 35-36 0 0-35-35 0 0-36 35 0 0-35 36 0 0 35 35 0 0 36z"/>
    </symbol>
  
    <symbol id="icon-youtube" viewBox="0 0 512 512">
      <path d="m489 139c-6-21-22-38-43-43-38-11-190-11-190-11 0 0-152 0-190 11-21 5-37 22-43 43-10 38-10 117-10 117 0 0 0 80 10 118 6 21 22 37 43 42 38 11 190 11 190 11 0 0 152 0 190-11 21-5 37-21 43-42 10-38 10-118 10-118 0 0 0-79-10-117z m-283 190l0-145 127 72z"/>
    </symbol>
  
    <symbol id="icon-twitter-square" viewBox="0 0 512 512">
      <path d="m432 32l-352 0c-26 0-48 22-48 48l0 352c0 27 22 48 48 48l352 0c27 0 48-21 48-48l0-352c0-26-21-48-48-48z m-49 159c0 3 2 6 2 8 0 87-66 187-186 187-38 0-72-11-101-29 5 6 10 8 16 8 30 0 59-11 81-28-29-1-53-20-61-46 10 2 19 2 29-1-30-6-52-33-52-65l0 0c9 5 19 8 29 8-18-12-29-33-29-55 0-12 3-23 9-33 32 40 81 66 135 69-9-45 24-81 64-81 19 0 36 8 48 21 15-3 29-8 42-16-5 15-15 28-29 36 13-1 26-5 38-10-9 13-20 25-33 34z"/>
    </symbol>

    <symbol id="icon-bars" viewBox="0 0 448 512">
      <path d="M16 132h416c8.837 0 16-7.163 16-16V76c0-8.837-7.163-16-16-16H16C7.163 60 0 67.163 0 76v40c0 8.837 7.163 16 16 16zm0 160h416c8.837 0 16-7.163 16-16v-40c0-8.837-7.163-16-16-16H16c-8.837 0-16 7.163-16 16v40c0 8.837 7.163 16 16 16zm0 160h416c8.837 0 16-7.163 16-16v-40c0-8.837-7.163-16-16-16H16c-8.837 0-16 7.163-16 16v40c0 8.837 7.163 16 16 16z"/>
    </symbol>
  
    <symbol id="icon-ellipsis-h" viewBox="0 0 512 512">
      <path d="m304 256c0 27-21 48-48 48-26 0-48-21-48-48 0-26 22-48 48-48 27 0 48 22 48 48z m120-48c-26 0-48 22-48 48 0 27 22 48 48 48 27 0 48-21 48-48 0-26-21-48-48-48z m-336 0c-26 0-48 22-48 48 0 27 22 48 48 48 27 0 48-21 48-48 0-26-21-48-48-48z"/>
    </symbol>
  
    <symbol id="icon-angle-down" viewBox="0 0 512 512">
      <path d="m248 348l-148-147c-5-5-5-12 0-17l19-20c5-4 13-4 17 0l120 119 120-119c4-4 12-4 17 0l20 20c4 5 4 12 0 17l-148 147c-5 5-13 5-17 0z"/>
    </symbol>
  
    <symbol id="icon-angle-left" viewBox="0 0 512 512">
      <path d="m164 248l147-148c5-5 12-5 17 0l20 19c5 5 5 13 0 17l-119 120 119 120c5 4 5 12 0 17l-20 20c-5 4-12 4-17 0l-147-148c-4-5-4-13 0-17z"/>
    </symbol>
  
    <symbol id="icon-angle-up" viewBox="0 0 512 512">
      <path d="m265 164l148 147c4 5 4 12 0 17l-20 20c-5 5-13 5-17 0l-120-119-120 119c-4 5-12 5-17 0l-19-20c-5-5-5-12 0-17l148-147c4-4 12-4 17 0z"/>
    </symbol>
  
    <symbol id="icon-angle-right" viewBox="0 0 512 512">
      <path d="m348 265l-147 148c-5 4-12 4-17 0l-20-20c-4-5-4-13 0-17l119-120-119-120c-4-4-4-12 0-17l20-19c5-5 12-5 17 0l147 148c5 4 5 12 0 17z"/>
    </symbol>
  
    <symbol id="icon-caret-down" viewBox="0 0 512 512">
      <path d="m127 192l258 0c17 0 26 22 14 34l-129 129c-8 8-20 8-28 0l-129-129c-12-12-3-34 14-34z"/>
    </symbol>
  
    <symbol id="icon-caret-left" viewBox="0 0 512 512">
      <path d="m352 127l0 258c0 17-22 26-34 14l-129-129c-8-8-8-20 0-28l129-129c12-12 34-3 34 14z"/>
    </symbol>
  
    <symbol id="icon-caret-right" viewBox="0 0 512 512">
      <path d="m160 385l0-258c0-17 22-26 34-14l129 129c8 8 8 20 0 28l-129 129c-12 12-34 3-34-14z"/>
    </symbol>
  
    <symbol id="icon-caret-up" viewBox="0 0 512 512">
      <path d="m385 352l-258 0c-17 0-26-22-14-34l129-129c8-8 20-8 28 0l129 129c12 12 3 34-14 34z"/>
    </symbol>
  
    <symbol id="icon-check-light" viewBox="0 0 512 512">
      <path d="m446 92l-281 280-99-99c-4-5-12-5-16 0l-12 11c-4 5-4 13 0 17l119 119c5 5 12 5 17 0l300-300c4-4 4-12 0-17l-12-11c-4-5-12-5-16 0z"/>
    </symbol>
  
    <symbol id="icon-check-solid" viewBox="0 0 512 512">
      <path d="m174 439l-167-166c-10-10-10-26 0-36l37-36c10-10 26-10 36 0l112 112 240-240c10-10 26-10 36 0l37 36c10 10 10 26 0 36l-295 294c-10 10-26 10-36 0z"/>
    </symbol>
  
    <symbol id="icon-check-regular" viewBox="0 0 512 512">
      <path d="m436 83l-263 264-97-97c-5-5-12-5-17 0l-28 28c-5 5-5 12 0 17l133 134c5 4 13 4 17 0l300-300c5-5 5-13 0-17l-28-29c-5-4-12-4-17 0z"/>
    </symbol>
  
    <symbol id="icon-plus" viewBox="0 0 512 512">
      <path d="m432 224l-144 0 0-144c0-9-7-16-16-16l-32 0c-9 0-16 7-16 16l0 144-144 0c-9 0-16 7-16 16l0 32c0 9 7 16 16 16l144 0 0 144c0 9 7 16 16 16l32 0c9 0 16-7 16-16l0-144 144 0c9 0 16-7 16-16l0-32c0-9-7-16-16-16z"/>
    </symbol>
  
    <symbol id="icon-info-circle" viewBox="0 0 512 512">
      <path d="m256 8c-137 0-248 111-248 248 0 137 111 248 248 248 137 0 248-111 248-248 0-137-111-248-248-248z m0 448c-111 0-200-89-200-200 0-110 89-200 200-200 110 0 200 89 200 200 0 111-89 200-200 200z m0-338c23 0 42 19 42 42 0 23-19 42-42 42-23 0-42-19-42-42 0-23 19-42 42-42z m56 254c0 7-5 12-12 12l-88 0c-7 0-12-5-12-12l0-24c0-7 5-12 12-12l12 0 0-64-12 0c-7 0-12-5-12-12l0-24c0-7 5-12 12-12l64 0c7 0 12 5 12 12l0 100 12 0c7 0 12 5 12 12z"/>
    </symbol>
  
    <symbol id="icon-info-circle-1" viewBox="0 0 512 512">
      <path d="m256 8c-137 0-248 111-248 248 0 137 111 248 248 248 137 0 248-111 248-248 0-137-111-248-248-248z m0 110c23 0 42 19 42 42 0 23-19 42-42 42-23 0-42-19-42-42 0-23 19-42 42-42z m56 254c0 7-5 12-12 12l-88 0c-7 0-12-5-12-12l0-24c0-7 5-12 12-12l12 0 0-64-12 0c-7 0-12-5-12-12l0-24c0-7 5-12 12-12l64 0c7 0 12 5 12 12l0 100 12 0c7 0 12 5 12 12z"/>
    </symbol>
  
    <symbol id="icon-question-circle" viewBox="0 0 512 512">
      <path d="m504 256c0 137-111 248-248 248-137 0-248-111-248-248 0-137 111-248 248-248 137 0 248 111 248 248z m-241-166c-55 0-90 23-117 64-3 5-2 12 3 16l35 26c5 4 12 3 16-2 18-22 30-36 57-36 21 0 46 14 46 33 0 15-12 23-32 34-24 14-55 30-55 71l0 4c0 7 5 12 12 12l56 0c7 0 12-5 12-12l0-1c0-29 83-30 83-107 0-58-60-102-116-102z m-7 248c-25 0-46 21-46 46 0 25 21 46 46 46 25 0 46-21 46-46 0-25-21-46-46-46z"/>
    </symbol>
  
    <symbol id="icon-question-circle-1" viewBox="0 0 512 512">
      <path d="m256 8c-137 0-248 111-248 248 0 137 111 248 248 248 137 0 248-111 248-248 0-137-111-248-248-248z m0 448c-111 0-200-89-200-200 0-110 89-200 200-200 110 0 200 89 200 200 0 111-89 200-200 200z m107-255c0 67-72 68-72 93l0 6c0 7-6 12-12 12l-46 0c-6 0-12-5-12-12l0-9c0-35 27-50 48-61 17-10 28-17 28-30 0-17-22-28-40-28-23 0-34 11-49 30-4 5-11 6-16 2l-28-21c-5-4-6-12-3-17 24-35 54-54 101-54 49 0 101 38 101 89z m-65 167c0 23-19 42-42 42-23 0-42-19-42-42 0-23 19-42 42-42 23 0 42 19 42 42z"/>
    </symbol>
  
    <symbol id="icon-map-marker-alt" viewBox="0 0 512 512">
      <path d="m236 502c-145-211-172-233-172-310 0-106 86-192 192-192 106 0 192 86 192 192 0 77-27 99-172 310-10 13-30 13-40 0z m20-230c44 0 80-36 80-80 0-44-36-80-80-80-44 0-80 36-80 80 0 44 36 80 80 80z"/>
    </symbol>
  
    <symbol id="icon-envelope" viewBox="0 0 512 512">
      <path d="m502 191c4-3 10 0 10 5l0 204c0 27-21 48-48 48l-416 0c-26 0-48-21-48-48l0-204c0-5 6-8 10-5 22 17 52 39 154 114 21 15 57 47 92 47 36 3 72-33 92-47 102-75 132-97 154-114z m-246 129c23 4 57-29 73-41 133-97 143-105 174-129 6-5 9-12 9-19l0-19c0-26-21-48-48-48l-416 0c-26 0-48 22-48 48l0 19c0 7 3 14 9 19 31 24 41 32 174 129 16 12 50 41 73 41z"/>
    </symbol>
  
    <symbol id="icon-search" viewBox="0 0 512 512">
      <path d="m509 469l-122-121c-2-3-5-4-8-4l-14 0c32-36 51-84 51-136 0-115-93-208-208-208-115 0-208 93-208 208 0 115 93 208 208 208 52 0 100-19 136-51l0 14c0 3 1 6 4 8l121 122c5 4 12 4 17 0l23-23c4-5 4-12 0-17z m-301-101c-88 0-160-72-160-160 0-88 72-160 160-160 88 0 160 72 160 160 0 88-72 160-160 160z"/>
    </symbol>
  
    <symbol id="icon-times" viewBox="0 0 512 512">
      <path d="m323 256l100-100c12-12 12-32 0-45l-22-22c-13-12-33-12-45 0l-100 100-100-100c-12-12-32-12-45 0l-22 22c-12 13-12 33 0 45l100 100-100 100c-12 12-12 32 0 45l22 22c13 12 33 12 45 0l100-100 100 100c12 12 32 12 45 0l22-22c12-13 12-33 0-45z"/>
    </symbol>
  
</svg>
